<mxfile host="app.diagrams.net" modified="2024-01-31T08:01:21.184Z" agent="Mozilla/5.0 (Windows NT 10.0; Win64; x64) AppleWebKit/537.36 (KHTML, like Gecko) Chrome/117.0.0.0 Safari/537.36" etag="gZB263o452zikSk6J7p_" version="22.1.18" type="github" pages="5">
  <diagram id="LGpQPTMdUIWg_tayTJqR" name="第 2 页">
    <mxGraphModel dx="1434" dy="758" grid="1" gridSize="10" guides="1" tooltips="1" connect="1" arrows="1" fold="1" page="1" pageScale="1" pageWidth="827" pageHeight="1169" math="0" shadow="0">
      <root>
        <mxCell id="0" />
        <mxCell id="1" parent="0" />
        <mxCell id="PUsgm-xeDiLw8xhtrvHL-9" value="" style="edgeStyle=orthogonalEdgeStyle;rounded=0;orthogonalLoop=1;jettySize=auto;html=1;" parent="1" source="PUsgm-xeDiLw8xhtrvHL-1" target="PUsgm-xeDiLw8xhtrvHL-8" edge="1">
          <mxGeometry relative="1" as="geometry" />
        </mxCell>
        <mxCell id="PUsgm-xeDiLw8xhtrvHL-1" value="开始" style="rounded=1;whiteSpace=wrap;html=1;" parent="1" vertex="1">
          <mxGeometry x="110" y="40" width="120" height="60" as="geometry" />
        </mxCell>
        <mxCell id="PUsgm-xeDiLw8xhtrvHL-15" value="" style="edgeStyle=orthogonalEdgeStyle;rounded=0;orthogonalLoop=1;jettySize=auto;html=1;" parent="1" source="PUsgm-xeDiLw8xhtrvHL-8" target="PUsgm-xeDiLw8xhtrvHL-14" edge="1">
          <mxGeometry relative="1" as="geometry" />
        </mxCell>
        <mxCell id="PUsgm-xeDiLw8xhtrvHL-24" style="edgeStyle=orthogonalEdgeStyle;rounded=0;orthogonalLoop=1;jettySize=auto;html=1;" parent="1" source="PUsgm-xeDiLw8xhtrvHL-8" edge="1">
          <mxGeometry relative="1" as="geometry">
            <mxPoint x="40" y="170" as="targetPoint" />
          </mxGeometry>
        </mxCell>
        <mxCell id="PUsgm-xeDiLw8xhtrvHL-8" value="请求参数" style="rhombus;whiteSpace=wrap;html=1;rounded=1;" parent="1" vertex="1">
          <mxGeometry x="130" y="130" width="80" height="80" as="geometry" />
        </mxCell>
        <mxCell id="PUsgm-xeDiLw8xhtrvHL-21" value="" style="edgeStyle=orthogonalEdgeStyle;rounded=0;orthogonalLoop=1;jettySize=auto;html=1;" parent="1" source="PUsgm-xeDiLw8xhtrvHL-14" target="PUsgm-xeDiLw8xhtrvHL-20" edge="1">
          <mxGeometry relative="1" as="geometry" />
        </mxCell>
        <mxCell id="PUsgm-xeDiLw8xhtrvHL-23" style="edgeStyle=orthogonalEdgeStyle;rounded=0;orthogonalLoop=1;jettySize=auto;html=1;entryX=0;entryY=0.5;entryDx=0;entryDy=0;" parent="1" target="PUsgm-xeDiLw8xhtrvHL-1" edge="1">
          <mxGeometry relative="1" as="geometry">
            <mxPoint x="40" y="290" as="sourcePoint" />
            <Array as="points">
              <mxPoint x="40" y="280" />
              <mxPoint x="40" y="70" />
            </Array>
          </mxGeometry>
        </mxCell>
        <mxCell id="PUsgm-xeDiLw8xhtrvHL-32" value="" style="edgeStyle=orthogonalEdgeStyle;rounded=0;orthogonalLoop=1;jettySize=auto;html=1;" parent="1" source="PUsgm-xeDiLw8xhtrvHL-14" target="PUsgm-xeDiLw8xhtrvHL-31" edge="1">
          <mxGeometry relative="1" as="geometry" />
        </mxCell>
        <mxCell id="PUsgm-xeDiLw8xhtrvHL-14" value="查询会员" style="rhombus;whiteSpace=wrap;html=1;rounded=1;" parent="1" vertex="1">
          <mxGeometry x="130" y="240" width="80" height="80" as="geometry" />
        </mxCell>
        <mxCell id="PUsgm-xeDiLw8xhtrvHL-16" value="mobile" style="text;html=1;strokeColor=none;fillColor=none;align=center;verticalAlign=middle;whiteSpace=wrap;rounded=0;" parent="1" vertex="1">
          <mxGeometry x="160" y="210" width="60" height="30" as="geometry" />
        </mxCell>
        <mxCell id="PUsgm-xeDiLw8xhtrvHL-28" style="edgeStyle=orthogonalEdgeStyle;rounded=0;orthogonalLoop=1;jettySize=auto;html=1;" parent="1" source="PUsgm-xeDiLw8xhtrvHL-20" edge="1">
          <mxGeometry relative="1" as="geometry">
            <mxPoint x="40" y="280" as="targetPoint" />
          </mxGeometry>
        </mxCell>
        <mxCell id="PUsgm-xeDiLw8xhtrvHL-20" value="更新信息" style="whiteSpace=wrap;html=1;rounded=1;" parent="1" vertex="1">
          <mxGeometry x="110" y="350" width="120" height="60" as="geometry" />
        </mxCell>
        <mxCell id="PUsgm-xeDiLw8xhtrvHL-22" value="存在" style="text;html=1;strokeColor=none;fillColor=none;align=center;verticalAlign=middle;whiteSpace=wrap;rounded=0;" parent="1" vertex="1">
          <mxGeometry x="170" y="320" width="60" height="30" as="geometry" />
        </mxCell>
        <mxCell id="PUsgm-xeDiLw8xhtrvHL-27" value="不通过" style="text;html=1;strokeColor=none;fillColor=none;align=center;verticalAlign=middle;whiteSpace=wrap;rounded=0;" parent="1" vertex="1">
          <mxGeometry x="50" y="140" width="60" height="30" as="geometry" />
        </mxCell>
        <mxCell id="PUsgm-xeDiLw8xhtrvHL-37" value="" style="edgeStyle=orthogonalEdgeStyle;rounded=0;orthogonalLoop=1;jettySize=auto;html=1;" parent="1" source="PUsgm-xeDiLw8xhtrvHL-31" target="PUsgm-xeDiLw8xhtrvHL-36" edge="1">
          <mxGeometry relative="1" as="geometry" />
        </mxCell>
        <mxCell id="PUsgm-xeDiLw8xhtrvHL-31" value="填充Dto会员信息" style="whiteSpace=wrap;html=1;rounded=1;" parent="1" vertex="1">
          <mxGeometry x="310" y="250" width="120" height="60" as="geometry" />
        </mxCell>
        <mxCell id="PUsgm-xeDiLw8xhtrvHL-35" value="不存在" style="text;html=1;strokeColor=none;fillColor=none;align=center;verticalAlign=middle;whiteSpace=wrap;rounded=0;" parent="1" vertex="1">
          <mxGeometry x="230" y="260" width="60" height="30" as="geometry" />
        </mxCell>
        <mxCell id="PUsgm-xeDiLw8xhtrvHL-39" value="" style="edgeStyle=orthogonalEdgeStyle;rounded=0;orthogonalLoop=1;jettySize=auto;html=1;" parent="1" source="PUsgm-xeDiLw8xhtrvHL-36" target="PUsgm-xeDiLw8xhtrvHL-38" edge="1">
          <mxGeometry relative="1" as="geometry" />
        </mxCell>
        <mxCell id="PUsgm-xeDiLw8xhtrvHL-36" value="加锁" style="whiteSpace=wrap;html=1;rounded=1;" parent="1" vertex="1">
          <mxGeometry x="510" y="250" width="120" height="60" as="geometry" />
        </mxCell>
        <mxCell id="PUsgm-xeDiLw8xhtrvHL-41" value="" style="edgeStyle=orthogonalEdgeStyle;rounded=0;orthogonalLoop=1;jettySize=auto;html=1;" parent="1" source="PUsgm-xeDiLw8xhtrvHL-38" target="PUsgm-xeDiLw8xhtrvHL-40" edge="1">
          <mxGeometry relative="1" as="geometry" />
        </mxCell>
        <mxCell id="PUsgm-xeDiLw8xhtrvHL-38" value="构建会员信息po" style="whiteSpace=wrap;html=1;rounded=1;" parent="1" vertex="1">
          <mxGeometry x="510" y="340" width="120" height="60" as="geometry" />
        </mxCell>
        <mxCell id="PUsgm-xeDiLw8xhtrvHL-43" value="" style="edgeStyle=orthogonalEdgeStyle;rounded=0;orthogonalLoop=1;jettySize=auto;html=1;" parent="1" source="PUsgm-xeDiLw8xhtrvHL-40" target="PUsgm-xeDiLw8xhtrvHL-42" edge="1">
          <mxGeometry relative="1" as="geometry" />
        </mxCell>
        <mxCell id="PUsgm-xeDiLw8xhtrvHL-40" value="创建会员" style="whiteSpace=wrap;html=1;rounded=1;" parent="1" vertex="1">
          <mxGeometry x="510" y="430" width="120" height="60" as="geometry" />
        </mxCell>
        <mxCell id="PUsgm-xeDiLw8xhtrvHL-42" value="结束" style="ellipse;whiteSpace=wrap;html=1;rounded=1;" parent="1" vertex="1">
          <mxGeometry x="530" y="520" width="80" height="80" as="geometry" />
        </mxCell>
      </root>
    </mxGraphModel>
  </diagram>
  <diagram id="c9nhNIzraACrxD3HVxT9" name="第 3 页">
    <mxGraphModel dx="862" dy="425" grid="1" gridSize="10" guides="1" tooltips="1" connect="1" arrows="1" fold="1" page="1" pageScale="1" pageWidth="827" pageHeight="1169" math="0" shadow="0">
      <root>
        <mxCell id="0" />
        <mxCell id="1" parent="0" />
        <mxCell id="7Fkj7wXe_-cMnstB_fd_-5" value="" style="edgeStyle=orthogonalEdgeStyle;rounded=0;orthogonalLoop=1;jettySize=auto;html=1;" edge="1" parent="1" source="7Fkj7wXe_-cMnstB_fd_-1" target="7Fkj7wXe_-cMnstB_fd_-4">
          <mxGeometry relative="1" as="geometry" />
        </mxCell>
        <mxCell id="7Fkj7wXe_-cMnstB_fd_-1" value="开始" style="rounded=1;whiteSpace=wrap;html=1;" vertex="1" parent="1">
          <mxGeometry x="130" y="40" width="120" height="60" as="geometry" />
        </mxCell>
        <mxCell id="7Fkj7wXe_-cMnstB_fd_-10" value="" style="edgeStyle=orthogonalEdgeStyle;rounded=0;orthogonalLoop=1;jettySize=auto;html=1;" edge="1" parent="1" source="7Fkj7wXe_-cMnstB_fd_-4" target="7Fkj7wXe_-cMnstB_fd_-9">
          <mxGeometry relative="1" as="geometry" />
        </mxCell>
        <mxCell id="7Fkj7wXe_-cMnstB_fd_-19" style="edgeStyle=orthogonalEdgeStyle;rounded=0;orthogonalLoop=1;jettySize=auto;html=1;" edge="1" parent="1" source="7Fkj7wXe_-cMnstB_fd_-4">
          <mxGeometry relative="1" as="geometry">
            <mxPoint x="20" y="170" as="targetPoint" />
          </mxGeometry>
        </mxCell>
        <mxCell id="7Fkj7wXe_-cMnstB_fd_-4" value="参数校验" style="rhombus;whiteSpace=wrap;html=1;rounded=1;" vertex="1" parent="1">
          <mxGeometry x="150" y="130" width="80" height="80" as="geometry" />
        </mxCell>
        <mxCell id="7Fkj7wXe_-cMnstB_fd_-8" value="Y" style="text;html=1;strokeColor=none;fillColor=none;align=center;verticalAlign=middle;whiteSpace=wrap;rounded=0;" vertex="1" parent="1">
          <mxGeometry x="190" y="210" width="60" height="30" as="geometry" />
        </mxCell>
        <mxCell id="7Fkj7wXe_-cMnstB_fd_-12" value="" style="edgeStyle=orthogonalEdgeStyle;rounded=0;orthogonalLoop=1;jettySize=auto;html=1;" edge="1" parent="1" source="7Fkj7wXe_-cMnstB_fd_-9" target="7Fkj7wXe_-cMnstB_fd_-11">
          <mxGeometry relative="1" as="geometry" />
        </mxCell>
        <mxCell id="7Fkj7wXe_-cMnstB_fd_-18" style="edgeStyle=orthogonalEdgeStyle;rounded=0;orthogonalLoop=1;jettySize=auto;html=1;" edge="1" parent="1" source="7Fkj7wXe_-cMnstB_fd_-9">
          <mxGeometry relative="1" as="geometry">
            <mxPoint x="20" y="290" as="targetPoint" />
          </mxGeometry>
        </mxCell>
        <mxCell id="7Fkj7wXe_-cMnstB_fd_-9" value="查询会员" style="rhombus;whiteSpace=wrap;html=1;rounded=1;" vertex="1" parent="1">
          <mxGeometry x="150" y="250" width="80" height="80" as="geometry" />
        </mxCell>
        <mxCell id="7Fkj7wXe_-cMnstB_fd_-15" value="" style="edgeStyle=orthogonalEdgeStyle;rounded=0;orthogonalLoop=1;jettySize=auto;html=1;" edge="1" parent="1" source="7Fkj7wXe_-cMnstB_fd_-11" target="7Fkj7wXe_-cMnstB_fd_-14">
          <mxGeometry relative="1" as="geometry" />
        </mxCell>
        <mxCell id="7Fkj7wXe_-cMnstB_fd_-17" style="edgeStyle=orthogonalEdgeStyle;rounded=0;orthogonalLoop=1;jettySize=auto;html=1;entryX=0;entryY=0.5;entryDx=0;entryDy=0;" edge="1" parent="1" source="7Fkj7wXe_-cMnstB_fd_-11" target="7Fkj7wXe_-cMnstB_fd_-1">
          <mxGeometry relative="1" as="geometry">
            <Array as="points">
              <mxPoint x="20" y="400" />
              <mxPoint x="20" y="70" />
            </Array>
          </mxGeometry>
        </mxCell>
        <mxCell id="7Fkj7wXe_-cMnstB_fd_-11" value="查询礼包" style="rhombus;whiteSpace=wrap;html=1;rounded=1;" vertex="1" parent="1">
          <mxGeometry x="150" y="360" width="80" height="80" as="geometry" />
        </mxCell>
        <mxCell id="7Fkj7wXe_-cMnstB_fd_-13" value="存在" style="text;html=1;strokeColor=none;fillColor=none;align=center;verticalAlign=middle;whiteSpace=wrap;rounded=0;" vertex="1" parent="1">
          <mxGeometry x="180" y="320" width="60" height="30" as="geometry" />
        </mxCell>
        <mxCell id="7Fkj7wXe_-cMnstB_fd_-26" value="" style="edgeStyle=orthogonalEdgeStyle;rounded=0;orthogonalLoop=1;jettySize=auto;html=1;" edge="1" parent="1" source="7Fkj7wXe_-cMnstB_fd_-14" target="7Fkj7wXe_-cMnstB_fd_-25">
          <mxGeometry relative="1" as="geometry" />
        </mxCell>
        <mxCell id="7Fkj7wXe_-cMnstB_fd_-14" value="增加礼包发放记录" style="whiteSpace=wrap;html=1;rounded=1;" vertex="1" parent="1">
          <mxGeometry x="130" y="490" width="120" height="60" as="geometry" />
        </mxCell>
        <mxCell id="7Fkj7wXe_-cMnstB_fd_-16" value="满足" style="text;html=1;strokeColor=none;fillColor=none;align=center;verticalAlign=middle;whiteSpace=wrap;rounded=0;" vertex="1" parent="1">
          <mxGeometry x="190" y="440" width="60" height="30" as="geometry" />
        </mxCell>
        <mxCell id="7Fkj7wXe_-cMnstB_fd_-20" value="N" style="text;html=1;strokeColor=none;fillColor=none;align=center;verticalAlign=middle;whiteSpace=wrap;rounded=0;" vertex="1" parent="1">
          <mxGeometry x="80" y="150" width="60" height="30" as="geometry" />
        </mxCell>
        <mxCell id="7Fkj7wXe_-cMnstB_fd_-21" value="N" style="text;html=1;strokeColor=none;fillColor=none;align=center;verticalAlign=middle;whiteSpace=wrap;rounded=0;" vertex="1" parent="1">
          <mxGeometry x="80" y="250" width="60" height="30" as="geometry" />
        </mxCell>
        <mxCell id="7Fkj7wXe_-cMnstB_fd_-31" value="" style="edgeStyle=orthogonalEdgeStyle;rounded=0;orthogonalLoop=1;jettySize=auto;html=1;" edge="1" parent="1" source="7Fkj7wXe_-cMnstB_fd_-25" target="7Fkj7wXe_-cMnstB_fd_-30">
          <mxGeometry relative="1" as="geometry" />
        </mxCell>
        <mxCell id="7Fkj7wXe_-cMnstB_fd_-36" value="" style="edgeStyle=orthogonalEdgeStyle;rounded=0;orthogonalLoop=1;jettySize=auto;html=1;" edge="1" parent="1" source="7Fkj7wXe_-cMnstB_fd_-25" target="7Fkj7wXe_-cMnstB_fd_-35">
          <mxGeometry relative="1" as="geometry" />
        </mxCell>
        <mxCell id="7Fkj7wXe_-cMnstB_fd_-25" value="来源分组" style="rhombus;whiteSpace=wrap;html=1;rounded=1;" vertex="1" parent="1">
          <mxGeometry x="150" y="600" width="80" height="80" as="geometry" />
        </mxCell>
        <mxCell id="7Fkj7wXe_-cMnstB_fd_-29" value="PMS" style="text;html=1;strokeColor=none;fillColor=none;align=center;verticalAlign=middle;whiteSpace=wrap;rounded=0;" vertex="1" parent="1">
          <mxGeometry x="200" y="680" width="60" height="30" as="geometry" />
        </mxCell>
        <mxCell id="7Fkj7wXe_-cMnstB_fd_-47" value="" style="edgeStyle=orthogonalEdgeStyle;rounded=0;orthogonalLoop=1;jettySize=auto;html=1;" edge="1" parent="1" source="7Fkj7wXe_-cMnstB_fd_-30" target="7Fkj7wXe_-cMnstB_fd_-46">
          <mxGeometry relative="1" as="geometry" />
        </mxCell>
        <mxCell id="7Fkj7wXe_-cMnstB_fd_-30" value="查询券信息" style="whiteSpace=wrap;html=1;rounded=1;" vertex="1" parent="1">
          <mxGeometry x="290" y="610" width="120" height="60" as="geometry" />
        </mxCell>
        <mxCell id="7Fkj7wXe_-cMnstB_fd_-32" value="ELH" style="text;html=1;align=center;verticalAlign=middle;resizable=0;points=[];autosize=1;strokeColor=none;fillColor=none;" vertex="1" parent="1">
          <mxGeometry x="230" y="610" width="50" height="30" as="geometry" />
        </mxCell>
        <mxCell id="7Fkj7wXe_-cMnstB_fd_-38" value="" style="edgeStyle=orthogonalEdgeStyle;rounded=0;orthogonalLoop=1;jettySize=auto;html=1;" edge="1" parent="1" source="7Fkj7wXe_-cMnstB_fd_-35" target="7Fkj7wXe_-cMnstB_fd_-37">
          <mxGeometry relative="1" as="geometry" />
        </mxCell>
        <mxCell id="7Fkj7wXe_-cMnstB_fd_-35" value="品牌分组" style="rhombus;whiteSpace=wrap;html=1;rounded=1;" vertex="1" parent="1">
          <mxGeometry x="150" y="710" width="80" height="80" as="geometry" />
        </mxCell>
        <mxCell id="7Fkj7wXe_-cMnstB_fd_-41" value="" style="edgeStyle=orthogonalEdgeStyle;rounded=0;orthogonalLoop=1;jettySize=auto;html=1;" edge="1" parent="1" source="7Fkj7wXe_-cMnstB_fd_-37" target="7Fkj7wXe_-cMnstB_fd_-40">
          <mxGeometry relative="1" as="geometry" />
        </mxCell>
        <mxCell id="7Fkj7wXe_-cMnstB_fd_-37" value="获取酒店信息" style="whiteSpace=wrap;html=1;rounded=1;" vertex="1" parent="1">
          <mxGeometry x="130" y="820" width="120" height="60" as="geometry" />
        </mxCell>
        <mxCell id="7Fkj7wXe_-cMnstB_fd_-39" value="brandCode" style="text;html=1;strokeColor=none;fillColor=none;align=center;verticalAlign=middle;whiteSpace=wrap;rounded=0;" vertex="1" parent="1">
          <mxGeometry x="190" y="790" width="60" height="30" as="geometry" />
        </mxCell>
        <mxCell id="7Fkj7wXe_-cMnstB_fd_-43" value="" style="edgeStyle=orthogonalEdgeStyle;rounded=0;orthogonalLoop=1;jettySize=auto;html=1;" edge="1" parent="1" source="7Fkj7wXe_-cMnstB_fd_-40" target="7Fkj7wXe_-cMnstB_fd_-42">
          <mxGeometry relative="1" as="geometry" />
        </mxCell>
        <mxCell id="7Fkj7wXe_-cMnstB_fd_-40" value="注册PMS会员" style="whiteSpace=wrap;html=1;rounded=1;" vertex="1" parent="1">
          <mxGeometry x="130" y="910" width="120" height="60" as="geometry" />
        </mxCell>
        <mxCell id="7Fkj7wXe_-cMnstB_fd_-57" value="" style="edgeStyle=orthogonalEdgeStyle;rounded=0;orthogonalLoop=1;jettySize=auto;html=1;" edge="1" parent="1" source="7Fkj7wXe_-cMnstB_fd_-42" target="7Fkj7wXe_-cMnstB_fd_-56">
          <mxGeometry relative="1" as="geometry" />
        </mxCell>
        <mxCell id="7Fkj7wXe_-cMnstB_fd_-42" value="发券" style="whiteSpace=wrap;html=1;rounded=1;" vertex="1" parent="1">
          <mxGeometry x="130" y="1000" width="120" height="60" as="geometry" />
        </mxCell>
        <mxCell id="7Fkj7wXe_-cMnstB_fd_-51" value="" style="edgeStyle=orthogonalEdgeStyle;rounded=0;orthogonalLoop=1;jettySize=auto;html=1;" edge="1" parent="1" source="7Fkj7wXe_-cMnstB_fd_-46" target="7Fkj7wXe_-cMnstB_fd_-50">
          <mxGeometry relative="1" as="geometry" />
        </mxCell>
        <mxCell id="7Fkj7wXe_-cMnstB_fd_-46" value="发券" style="whiteSpace=wrap;html=1;rounded=1;" vertex="1" parent="1">
          <mxGeometry x="440" y="610" width="120" height="60" as="geometry" />
        </mxCell>
        <mxCell id="7Fkj7wXe_-cMnstB_fd_-53" value="" style="edgeStyle=orthogonalEdgeStyle;rounded=0;orthogonalLoop=1;jettySize=auto;html=1;" edge="1" parent="1" source="7Fkj7wXe_-cMnstB_fd_-50" target="7Fkj7wXe_-cMnstB_fd_-52">
          <mxGeometry relative="1" as="geometry" />
        </mxCell>
        <mxCell id="7Fkj7wXe_-cMnstB_fd_-50" value="券与人绑定" style="whiteSpace=wrap;html=1;rounded=1;" vertex="1" parent="1">
          <mxGeometry x="440" y="700" width="120" height="60" as="geometry" />
        </mxCell>
        <mxCell id="7Fkj7wXe_-cMnstB_fd_-55" value="" style="edgeStyle=orthogonalEdgeStyle;rounded=0;orthogonalLoop=1;jettySize=auto;html=1;" edge="1" parent="1" source="7Fkj7wXe_-cMnstB_fd_-52" target="7Fkj7wXe_-cMnstB_fd_-54">
          <mxGeometry relative="1" as="geometry" />
        </mxCell>
        <mxCell id="7Fkj7wXe_-cMnstB_fd_-52" value="更新发券数量" style="whiteSpace=wrap;html=1;rounded=1;" vertex="1" parent="1">
          <mxGeometry x="440" y="790" width="120" height="60" as="geometry" />
        </mxCell>
        <mxCell id="7Fkj7wXe_-cMnstB_fd_-54" value="结束" style="ellipse;whiteSpace=wrap;html=1;rounded=1;" vertex="1" parent="1">
          <mxGeometry x="460" y="880" width="80" height="80" as="geometry" />
        </mxCell>
        <mxCell id="7Fkj7wXe_-cMnstB_fd_-56" value="结束" style="ellipse;whiteSpace=wrap;html=1;rounded=1;" vertex="1" parent="1">
          <mxGeometry x="150" y="1089" width="80" height="80" as="geometry" />
        </mxCell>
      </root>
    </mxGraphModel>
  </diagram>
  <diagram id="GOkBfmBCVbUFbRYq70G4" name="第 4 页">
    <mxGraphModel dx="1674" dy="758" grid="1" gridSize="10" guides="1" tooltips="1" connect="1" arrows="1" fold="1" page="1" pageScale="1" pageWidth="827" pageHeight="1169" math="0" shadow="0">
      <root>
        <mxCell id="0" />
        <mxCell id="1" parent="0" />
        <mxCell id="QuHk-NOL6Uq2ImWkOz8f-5" value="" style="edgeStyle=orthogonalEdgeStyle;rounded=0;orthogonalLoop=1;jettySize=auto;html=1;" parent="1" source="QuHk-NOL6Uq2ImWkOz8f-1" target="QuHk-NOL6Uq2ImWkOz8f-4" edge="1">
          <mxGeometry relative="1" as="geometry" />
        </mxCell>
        <mxCell id="QuHk-NOL6Uq2ImWkOz8f-1" value="开始" style="rounded=1;whiteSpace=wrap;html=1;" parent="1" vertex="1">
          <mxGeometry x="120" y="30" width="120" height="60" as="geometry" />
        </mxCell>
        <mxCell id="QuHk-NOL6Uq2ImWkOz8f-6" style="edgeStyle=orthogonalEdgeStyle;rounded=0;orthogonalLoop=1;jettySize=auto;html=1;entryX=0;entryY=0.5;entryDx=0;entryDy=0;" parent="1" source="QuHk-NOL6Uq2ImWkOz8f-4" target="QuHk-NOL6Uq2ImWkOz8f-1" edge="1">
          <mxGeometry relative="1" as="geometry">
            <Array as="points">
              <mxPoint x="50" y="200" />
              <mxPoint x="50" y="60" />
            </Array>
          </mxGeometry>
        </mxCell>
        <mxCell id="QuHk-NOL6Uq2ImWkOz8f-9" value="" style="edgeStyle=orthogonalEdgeStyle;rounded=0;orthogonalLoop=1;jettySize=auto;html=1;" parent="1" source="QuHk-NOL6Uq2ImWkOz8f-4" target="QuHk-NOL6Uq2ImWkOz8f-8" edge="1">
          <mxGeometry relative="1" as="geometry" />
        </mxCell>
        <mxCell id="QuHk-NOL6Uq2ImWkOz8f-4" value="查询会员" style="rhombus;whiteSpace=wrap;html=1;rounded=1;" parent="1" vertex="1">
          <mxGeometry x="140" y="160" width="80" height="80" as="geometry" />
        </mxCell>
        <mxCell id="QuHk-NOL6Uq2ImWkOz8f-7" value="不存在" style="text;html=1;strokeColor=none;fillColor=none;align=center;verticalAlign=middle;whiteSpace=wrap;rounded=0;" parent="1" vertex="1">
          <mxGeometry x="70" y="180" width="60" height="30" as="geometry" />
        </mxCell>
        <mxCell id="QuHk-NOL6Uq2ImWkOz8f-11" value="" style="edgeStyle=orthogonalEdgeStyle;rounded=0;orthogonalLoop=1;jettySize=auto;html=1;" parent="1" source="QuHk-NOL6Uq2ImWkOz8f-8" target="QuHk-NOL6Uq2ImWkOz8f-10" edge="1">
          <mxGeometry relative="1" as="geometry" />
        </mxCell>
        <mxCell id="QuHk-NOL6Uq2ImWkOz8f-8" value="查询所有的券" style="rounded=1;whiteSpace=wrap;html=1;" parent="1" vertex="1">
          <mxGeometry x="120" y="270" width="120" height="60" as="geometry" />
        </mxCell>
        <mxCell id="QuHk-NOL6Uq2ImWkOz8f-10" value="结束" style="ellipse;whiteSpace=wrap;html=1;rounded=1;" parent="1" vertex="1">
          <mxGeometry x="140" y="380" width="80" height="80" as="geometry" />
        </mxCell>
        <mxCell id="QuHk-NOL6Uq2ImWkOz8f-12" value="存在" style="text;html=1;strokeColor=none;fillColor=none;align=center;verticalAlign=middle;whiteSpace=wrap;rounded=0;" parent="1" vertex="1">
          <mxGeometry x="170" y="240" width="60" height="30" as="geometry" />
        </mxCell>
      </root>
    </mxGraphModel>
  </diagram>
  <diagram id="eWoBoCR_yjn8n_yVmrbP" name="第 5 页">
    <mxGraphModel dx="1674" dy="758" grid="1" gridSize="10" guides="1" tooltips="1" connect="1" arrows="1" fold="1" page="1" pageScale="1" pageWidth="827" pageHeight="1169" math="0" shadow="0">
      <root>
        <mxCell id="0" />
        <mxCell id="1" parent="0" />
        <mxCell id="v6xvAaUq2PKAbymwSXtG-14" value="controller:RaffleActivityConfigController" style="shape=umlLifeline;perimeter=lifelinePerimeter;whiteSpace=wrap;html=1;container=1;dropTarget=0;collapsible=0;recursiveResize=0;outlineConnect=0;portConstraint=eastwest;newEdgeStyle={&quot;curved&quot;:0,&quot;rounded&quot;:0};" vertex="1" parent="1">
          <mxGeometry x="30" y="220" width="220" height="330" as="geometry" />
        </mxCell>
        <mxCell id="v6xvAaUq2PKAbymwSXtG-18" value="service:RaffleActivityConfigBiz" style="shape=umlLifeline;perimeter=lifelinePerimeter;whiteSpace=wrap;html=1;container=1;dropTarget=0;collapsible=0;recursiveResize=0;outlineConnect=0;portConstraint=eastwest;newEdgeStyle={&quot;curved&quot;:0,&quot;rounded&quot;:0};" vertex="1" parent="1">
          <mxGeometry x="280" y="220" width="220" height="330" as="geometry" />
        </mxCell>
        <mxCell id="v6xvAaUq2PKAbymwSXtG-19" value="dao:Database" style="shape=umlLifeline;perimeter=lifelinePerimeter;whiteSpace=wrap;html=1;container=1;dropTarget=0;collapsible=0;recursiveResize=0;outlineConnect=0;portConstraint=eastwest;newEdgeStyle={&quot;curved&quot;:0,&quot;rounded&quot;:0};" vertex="1" parent="1">
          <mxGeometry x="550" y="220" width="220" height="330" as="geometry" />
        </mxCell>
        <mxCell id="v6xvAaUq2PKAbymwSXtG-20" value="" style="endArrow=classic;html=1;rounded=0;" edge="1" parent="1" source="v6xvAaUq2PKAbymwSXtG-14" target="v6xvAaUq2PKAbymwSXtG-18">
          <mxGeometry width="50" height="50" relative="1" as="geometry">
            <mxPoint x="390" y="420" as="sourcePoint" />
            <mxPoint x="440" y="370" as="targetPoint" />
            <Array as="points">
              <mxPoint x="270" y="320" />
            </Array>
          </mxGeometry>
        </mxCell>
        <mxCell id="v6xvAaUq2PKAbymwSXtG-21" value="" style="endArrow=classic;html=1;rounded=0;" edge="1" parent="1" target="v6xvAaUq2PKAbymwSXtG-19">
          <mxGeometry width="50" height="50" relative="1" as="geometry">
            <mxPoint x="390" y="420" as="sourcePoint" />
            <mxPoint x="440" y="370" as="targetPoint" />
          </mxGeometry>
        </mxCell>
        <mxCell id="v6xvAaUq2PKAbymwSXtG-22" value="" style="endArrow=classic;html=1;rounded=0;" edge="1" parent="1" target="v6xvAaUq2PKAbymwSXtG-18">
          <mxGeometry width="50" height="50" relative="1" as="geometry">
            <mxPoint x="390" y="420" as="sourcePoint" />
            <mxPoint x="440" y="370" as="targetPoint" />
          </mxGeometry>
        </mxCell>
        <mxCell id="v6xvAaUq2PKAbymwSXtG-23" value="" style="endArrow=classic;html=1;rounded=0;" edge="1" parent="1" target="v6xvAaUq2PKAbymwSXtG-18">
          <mxGeometry width="50" height="50" relative="1" as="geometry">
            <mxPoint x="390" y="420" as="sourcePoint" />
            <mxPoint x="440" y="370" as="targetPoint" />
          </mxGeometry>
        </mxCell>
        <mxCell id="v6xvAaUq2PKAbymwSXtG-24" value="" style="endArrow=classic;html=1;rounded=0;" edge="1" parent="1" target="v6xvAaUq2PKAbymwSXtG-18">
          <mxGeometry width="50" height="50" relative="1" as="geometry">
            <mxPoint x="390" y="420" as="sourcePoint" />
            <mxPoint x="440" y="370" as="targetPoint" />
          </mxGeometry>
        </mxCell>
        <mxCell id="v6xvAaUq2PKAbymwSXtG-26" value="" style="endArrow=classic;html=1;rounded=0;" edge="1" parent="1" source="v6xvAaUq2PKAbymwSXtG-18" target="v6xvAaUq2PKAbymwSXtG-14">
          <mxGeometry width="50" height="50" relative="1" as="geometry">
            <mxPoint x="390" y="420" as="sourcePoint" />
            <mxPoint x="440" y="370" as="targetPoint" />
            <Array as="points">
              <mxPoint x="320" y="490" />
              <mxPoint x="210" y="490" />
            </Array>
          </mxGeometry>
        </mxCell>
        <mxCell id="v6xvAaUq2PKAbymwSXtG-27" value="" style="endArrow=classic;html=1;rounded=0;" edge="1" parent="1" target="v6xvAaUq2PKAbymwSXtG-18">
          <mxGeometry width="50" height="50" relative="1" as="geometry">
            <mxPoint x="390" y="420" as="sourcePoint" />
            <mxPoint x="440" y="370" as="targetPoint" />
          </mxGeometry>
        </mxCell>
        <mxCell id="v6xvAaUq2PKAbymwSXtG-28" value="" style="endArrow=classic;html=1;rounded=0;" edge="1" parent="1" target="v6xvAaUq2PKAbymwSXtG-18">
          <mxGeometry width="50" height="50" relative="1" as="geometry">
            <mxPoint x="390" y="420" as="sourcePoint" />
            <mxPoint x="440" y="370" as="targetPoint" />
          </mxGeometry>
        </mxCell>
        <mxCell id="v6xvAaUq2PKAbymwSXtG-29" value="" style="endArrow=classic;html=1;rounded=0;" edge="1" parent="1" target="v6xvAaUq2PKAbymwSXtG-19">
          <mxGeometry width="50" height="50" relative="1" as="geometry">
            <mxPoint x="390" y="420" as="sourcePoint" />
            <mxPoint x="440" y="370" as="targetPoint" />
          </mxGeometry>
        </mxCell>
        <mxCell id="v6xvAaUq2PKAbymwSXtG-30" value="" style="endArrow=classic;html=1;rounded=0;" edge="1" parent="1">
          <mxGeometry width="50" height="50" relative="1" as="geometry">
            <mxPoint x="660" y="470" as="sourcePoint" />
            <mxPoint x="390" y="470" as="targetPoint" />
          </mxGeometry>
        </mxCell>
      </root>
    </mxGraphModel>
  </diagram>
  <diagram id="LNHJTXbvxdpmPvmHwoOY" name="第 6 页">
    <mxGraphModel dx="1434" dy="758" grid="1" gridSize="10" guides="1" tooltips="1" connect="1" arrows="1" fold="1" page="1" pageScale="1" pageWidth="827" pageHeight="1169" math="0" shadow="0">
      <root>
        <mxCell id="0" />
        <mxCell id="1" parent="0" />
        <mxCell id="1R9x10eIZw1gKWN-5615-4" style="edgeStyle=orthogonalEdgeStyle;rounded=0;orthogonalLoop=1;jettySize=auto;html=1;" edge="1" parent="1" source="1R9x10eIZw1gKWN-5615-1">
          <mxGeometry relative="1" as="geometry">
            <mxPoint x="330" y="155" as="targetPoint" />
          </mxGeometry>
        </mxCell>
        <mxCell id="1R9x10eIZw1gKWN-5615-1" value="Actor" style="shape=umlActor;verticalLabelPosition=bottom;verticalAlign=top;html=1;outlineConnect=0;" vertex="1" parent="1">
          <mxGeometry x="110" y="120" width="30" height="60" as="geometry" />
        </mxCell>
        <mxCell id="1R9x10eIZw1gKWN-5615-5" value="第一次登录" style="text;html=1;strokeColor=none;fillColor=none;align=center;verticalAlign=middle;whiteSpace=wrap;rounded=0;" vertex="1" parent="1">
          <mxGeometry x="190" y="120" width="60" height="30" as="geometry" />
        </mxCell>
        <mxCell id="1R9x10eIZw1gKWN-5615-6" value="" style="shape=table;startSize=0;container=1;collapsible=0;childLayout=tableLayout;fontSize=16;" vertex="1" parent="1">
          <mxGeometry x="330" y="110" width="180" height="120" as="geometry" />
        </mxCell>
        <mxCell id="1R9x10eIZw1gKWN-5615-7" value="" style="shape=tableRow;horizontal=0;startSize=0;swimlaneHead=0;swimlaneBody=0;strokeColor=inherit;top=0;left=0;bottom=0;right=0;collapsible=0;dropTarget=0;fillColor=none;points=[[0,0.5],[1,0.5]];portConstraint=eastwest;fontSize=16;" vertex="1" parent="1R9x10eIZw1gKWN-5615-6">
          <mxGeometry width="180" height="40" as="geometry" />
        </mxCell>
        <mxCell id="1R9x10eIZw1gKWN-5615-8" value="id" style="shape=partialRectangle;html=1;whiteSpace=wrap;connectable=0;strokeColor=inherit;overflow=hidden;fillColor=none;top=0;left=0;bottom=0;right=0;pointerEvents=1;fontSize=16;" vertex="1" parent="1R9x10eIZw1gKWN-5615-7">
          <mxGeometry width="60" height="40" as="geometry">
            <mxRectangle width="60" height="40" as="alternateBounds" />
          </mxGeometry>
        </mxCell>
        <mxCell id="1R9x10eIZw1gKWN-5615-9" value="mobile" style="shape=partialRectangle;html=1;whiteSpace=wrap;connectable=0;strokeColor=inherit;overflow=hidden;fillColor=none;top=0;left=0;bottom=0;right=0;pointerEvents=1;fontSize=16;" vertex="1" parent="1R9x10eIZw1gKWN-5615-7">
          <mxGeometry x="60" width="60" height="40" as="geometry">
            <mxRectangle width="60" height="40" as="alternateBounds" />
          </mxGeometry>
        </mxCell>
        <mxCell id="1R9x10eIZw1gKWN-5615-10" value="Uid" style="shape=partialRectangle;html=1;whiteSpace=wrap;connectable=0;strokeColor=inherit;overflow=hidden;fillColor=none;top=0;left=0;bottom=0;right=0;pointerEvents=1;fontSize=16;" vertex="1" parent="1R9x10eIZw1gKWN-5615-7">
          <mxGeometry x="120" width="60" height="40" as="geometry">
            <mxRectangle width="60" height="40" as="alternateBounds" />
          </mxGeometry>
        </mxCell>
        <mxCell id="1R9x10eIZw1gKWN-5615-11" value="" style="shape=tableRow;horizontal=0;startSize=0;swimlaneHead=0;swimlaneBody=0;strokeColor=inherit;top=0;left=0;bottom=0;right=0;collapsible=0;dropTarget=0;fillColor=none;points=[[0,0.5],[1,0.5]];portConstraint=eastwest;fontSize=16;" vertex="1" parent="1R9x10eIZw1gKWN-5615-6">
          <mxGeometry y="40" width="180" height="40" as="geometry" />
        </mxCell>
        <mxCell id="1R9x10eIZw1gKWN-5615-12" value="1" style="shape=partialRectangle;html=1;whiteSpace=wrap;connectable=0;strokeColor=inherit;overflow=hidden;fillColor=none;top=0;left=0;bottom=0;right=0;pointerEvents=1;fontSize=16;" vertex="1" parent="1R9x10eIZw1gKWN-5615-11">
          <mxGeometry width="60" height="40" as="geometry">
            <mxRectangle width="60" height="40" as="alternateBounds" />
          </mxGeometry>
        </mxCell>
        <mxCell id="1R9x10eIZw1gKWN-5615-13" value="151" style="shape=partialRectangle;html=1;whiteSpace=wrap;connectable=0;strokeColor=inherit;overflow=hidden;fillColor=none;top=0;left=0;bottom=0;right=0;pointerEvents=1;fontSize=16;" vertex="1" parent="1R9x10eIZw1gKWN-5615-11">
          <mxGeometry x="60" width="60" height="40" as="geometry">
            <mxRectangle width="60" height="40" as="alternateBounds" />
          </mxGeometry>
        </mxCell>
        <mxCell id="1R9x10eIZw1gKWN-5615-14" value="aux" style="shape=partialRectangle;html=1;whiteSpace=wrap;connectable=0;strokeColor=inherit;overflow=hidden;fillColor=none;top=0;left=0;bottom=0;right=0;pointerEvents=1;fontSize=16;" vertex="1" parent="1R9x10eIZw1gKWN-5615-11">
          <mxGeometry x="120" width="60" height="40" as="geometry">
            <mxRectangle width="60" height="40" as="alternateBounds" />
          </mxGeometry>
        </mxCell>
        <mxCell id="1R9x10eIZw1gKWN-5615-15" value="" style="shape=tableRow;horizontal=0;startSize=0;swimlaneHead=0;swimlaneBody=0;strokeColor=inherit;top=0;left=0;bottom=0;right=0;collapsible=0;dropTarget=0;fillColor=none;points=[[0,0.5],[1,0.5]];portConstraint=eastwest;fontSize=16;" vertex="1" parent="1R9x10eIZw1gKWN-5615-6">
          <mxGeometry y="80" width="180" height="40" as="geometry" />
        </mxCell>
        <mxCell id="1R9x10eIZw1gKWN-5615-16" value="" style="shape=partialRectangle;html=1;whiteSpace=wrap;connectable=0;strokeColor=inherit;overflow=hidden;fillColor=none;top=0;left=0;bottom=0;right=0;pointerEvents=1;fontSize=16;" vertex="1" parent="1R9x10eIZw1gKWN-5615-15">
          <mxGeometry width="60" height="40" as="geometry">
            <mxRectangle width="60" height="40" as="alternateBounds" />
          </mxGeometry>
        </mxCell>
        <mxCell id="1R9x10eIZw1gKWN-5615-17" value="" style="shape=partialRectangle;html=1;whiteSpace=wrap;connectable=0;strokeColor=inherit;overflow=hidden;fillColor=none;top=0;left=0;bottom=0;right=0;pointerEvents=1;fontSize=16;" vertex="1" parent="1R9x10eIZw1gKWN-5615-15">
          <mxGeometry x="60" width="60" height="40" as="geometry">
            <mxRectangle width="60" height="40" as="alternateBounds" />
          </mxGeometry>
        </mxCell>
        <mxCell id="1R9x10eIZw1gKWN-5615-18" value="" style="shape=partialRectangle;html=1;whiteSpace=wrap;connectable=0;strokeColor=inherit;overflow=hidden;fillColor=none;top=0;left=0;bottom=0;right=0;pointerEvents=1;fontSize=16;" vertex="1" parent="1R9x10eIZw1gKWN-5615-15">
          <mxGeometry x="120" width="60" height="40" as="geometry">
            <mxRectangle width="60" height="40" as="alternateBounds" />
          </mxGeometry>
        </mxCell>
        <mxCell id="1R9x10eIZw1gKWN-5615-20" style="edgeStyle=orthogonalEdgeStyle;rounded=0;orthogonalLoop=1;jettySize=auto;html=1;" edge="1" parent="1" source="1R9x10eIZw1gKWN-5615-21">
          <mxGeometry relative="1" as="geometry">
            <mxPoint x="330" y="295" as="targetPoint" />
          </mxGeometry>
        </mxCell>
        <mxCell id="1R9x10eIZw1gKWN-5615-21" value="Actor" style="shape=umlActor;verticalLabelPosition=bottom;verticalAlign=top;html=1;outlineConnect=0;" vertex="1" parent="1">
          <mxGeometry x="110" y="260" width="30" height="60" as="geometry" />
        </mxCell>
        <mxCell id="1R9x10eIZw1gKWN-5615-22" value="第二次登录" style="text;html=1;strokeColor=none;fillColor=none;align=center;verticalAlign=middle;whiteSpace=wrap;rounded=0;" vertex="1" parent="1">
          <mxGeometry x="190" y="260" width="60" height="30" as="geometry" />
        </mxCell>
        <mxCell id="1R9x10eIZw1gKWN-5615-23" value="" style="shape=table;startSize=0;container=1;collapsible=0;childLayout=tableLayout;fontSize=16;" vertex="1" parent="1">
          <mxGeometry x="330" y="250" width="180" height="120" as="geometry" />
        </mxCell>
        <mxCell id="1R9x10eIZw1gKWN-5615-24" value="" style="shape=tableRow;horizontal=0;startSize=0;swimlaneHead=0;swimlaneBody=0;strokeColor=inherit;top=0;left=0;bottom=0;right=0;collapsible=0;dropTarget=0;fillColor=none;points=[[0,0.5],[1,0.5]];portConstraint=eastwest;fontSize=16;" vertex="1" parent="1R9x10eIZw1gKWN-5615-23">
          <mxGeometry width="180" height="40" as="geometry" />
        </mxCell>
        <mxCell id="1R9x10eIZw1gKWN-5615-25" value="1" style="shape=partialRectangle;html=1;whiteSpace=wrap;connectable=0;strokeColor=inherit;overflow=hidden;fillColor=none;top=0;left=0;bottom=0;right=0;pointerEvents=1;fontSize=16;" vertex="1" parent="1R9x10eIZw1gKWN-5615-24">
          <mxGeometry width="60" height="40" as="geometry">
            <mxRectangle width="60" height="40" as="alternateBounds" />
          </mxGeometry>
        </mxCell>
        <mxCell id="1R9x10eIZw1gKWN-5615-26" value="151" style="shape=partialRectangle;html=1;whiteSpace=wrap;connectable=0;strokeColor=inherit;overflow=hidden;fillColor=none;top=0;left=0;bottom=0;right=0;pointerEvents=1;fontSize=16;" vertex="1" parent="1R9x10eIZw1gKWN-5615-24">
          <mxGeometry x="60" width="60" height="40" as="geometry">
            <mxRectangle width="60" height="40" as="alternateBounds" />
          </mxGeometry>
        </mxCell>
        <mxCell id="1R9x10eIZw1gKWN-5615-27" value="aux" style="shape=partialRectangle;html=1;whiteSpace=wrap;connectable=0;strokeColor=inherit;overflow=hidden;fillColor=none;top=0;left=0;bottom=0;right=0;pointerEvents=1;fontSize=16;" vertex="1" parent="1R9x10eIZw1gKWN-5615-24">
          <mxGeometry x="120" width="60" height="40" as="geometry">
            <mxRectangle width="60" height="40" as="alternateBounds" />
          </mxGeometry>
        </mxCell>
        <mxCell id="1R9x10eIZw1gKWN-5615-28" value="" style="shape=tableRow;horizontal=0;startSize=0;swimlaneHead=0;swimlaneBody=0;strokeColor=inherit;top=0;left=0;bottom=0;right=0;collapsible=0;dropTarget=0;fillColor=none;points=[[0,0.5],[1,0.5]];portConstraint=eastwest;fontSize=16;" vertex="1" parent="1R9x10eIZw1gKWN-5615-23">
          <mxGeometry y="40" width="180" height="40" as="geometry" />
        </mxCell>
        <mxCell id="1R9x10eIZw1gKWN-5615-29" value="2" style="shape=partialRectangle;html=1;whiteSpace=wrap;connectable=0;strokeColor=inherit;overflow=hidden;fillColor=none;top=0;left=0;bottom=0;right=0;pointerEvents=1;fontSize=16;" vertex="1" parent="1R9x10eIZw1gKWN-5615-28">
          <mxGeometry width="60" height="40" as="geometry">
            <mxRectangle width="60" height="40" as="alternateBounds" />
          </mxGeometry>
        </mxCell>
        <mxCell id="1R9x10eIZw1gKWN-5615-30" value="152" style="shape=partialRectangle;html=1;whiteSpace=wrap;connectable=0;strokeColor=inherit;overflow=hidden;fillColor=none;top=0;left=0;bottom=0;right=0;pointerEvents=1;fontSize=16;" vertex="1" parent="1R9x10eIZw1gKWN-5615-28">
          <mxGeometry x="60" width="60" height="40" as="geometry">
            <mxRectangle width="60" height="40" as="alternateBounds" />
          </mxGeometry>
        </mxCell>
        <mxCell id="1R9x10eIZw1gKWN-5615-31" value="aux" style="shape=partialRectangle;html=1;whiteSpace=wrap;connectable=0;strokeColor=inherit;overflow=hidden;fillColor=none;top=0;left=0;bottom=0;right=0;pointerEvents=1;fontSize=16;" vertex="1" parent="1R9x10eIZw1gKWN-5615-28">
          <mxGeometry x="120" width="60" height="40" as="geometry">
            <mxRectangle width="60" height="40" as="alternateBounds" />
          </mxGeometry>
        </mxCell>
        <mxCell id="1R9x10eIZw1gKWN-5615-32" value="" style="shape=tableRow;horizontal=0;startSize=0;swimlaneHead=0;swimlaneBody=0;strokeColor=inherit;top=0;left=0;bottom=0;right=0;collapsible=0;dropTarget=0;fillColor=none;points=[[0,0.5],[1,0.5]];portConstraint=eastwest;fontSize=16;" vertex="1" parent="1R9x10eIZw1gKWN-5615-23">
          <mxGeometry y="80" width="180" height="40" as="geometry" />
        </mxCell>
        <mxCell id="1R9x10eIZw1gKWN-5615-33" value="" style="shape=partialRectangle;html=1;whiteSpace=wrap;connectable=0;strokeColor=inherit;overflow=hidden;fillColor=none;top=0;left=0;bottom=0;right=0;pointerEvents=1;fontSize=16;" vertex="1" parent="1R9x10eIZw1gKWN-5615-32">
          <mxGeometry width="60" height="40" as="geometry">
            <mxRectangle width="60" height="40" as="alternateBounds" />
          </mxGeometry>
        </mxCell>
        <mxCell id="1R9x10eIZw1gKWN-5615-34" value="" style="shape=partialRectangle;html=1;whiteSpace=wrap;connectable=0;strokeColor=inherit;overflow=hidden;fillColor=none;top=0;left=0;bottom=0;right=0;pointerEvents=1;fontSize=16;" vertex="1" parent="1R9x10eIZw1gKWN-5615-32">
          <mxGeometry x="60" width="60" height="40" as="geometry">
            <mxRectangle width="60" height="40" as="alternateBounds" />
          </mxGeometry>
        </mxCell>
        <mxCell id="1R9x10eIZw1gKWN-5615-35" value="" style="shape=partialRectangle;html=1;whiteSpace=wrap;connectable=0;strokeColor=inherit;overflow=hidden;fillColor=none;top=0;left=0;bottom=0;right=0;pointerEvents=1;fontSize=16;" vertex="1" parent="1R9x10eIZw1gKWN-5615-32">
          <mxGeometry x="120" width="60" height="40" as="geometry">
            <mxRectangle width="60" height="40" as="alternateBounds" />
          </mxGeometry>
        </mxCell>
        <mxCell id="1R9x10eIZw1gKWN-5615-36" style="edgeStyle=orthogonalEdgeStyle;rounded=0;orthogonalLoop=1;jettySize=auto;html=1;" edge="1" parent="1" source="1R9x10eIZw1gKWN-5615-37">
          <mxGeometry relative="1" as="geometry">
            <mxPoint x="320" y="435" as="targetPoint" />
          </mxGeometry>
        </mxCell>
        <mxCell id="1R9x10eIZw1gKWN-5615-37" value="Actor" style="shape=umlActor;verticalLabelPosition=bottom;verticalAlign=top;html=1;outlineConnect=0;" vertex="1" parent="1">
          <mxGeometry x="100" y="400" width="30" height="60" as="geometry" />
        </mxCell>
        <mxCell id="1R9x10eIZw1gKWN-5615-38" value="第三次登录" style="text;html=1;strokeColor=none;fillColor=none;align=center;verticalAlign=middle;whiteSpace=wrap;rounded=0;" vertex="1" parent="1">
          <mxGeometry x="180" y="400" width="60" height="30" as="geometry" />
        </mxCell>
        <mxCell id="1R9x10eIZw1gKWN-5615-39" value="" style="shape=table;startSize=0;container=1;collapsible=0;childLayout=tableLayout;fontSize=16;" vertex="1" parent="1">
          <mxGeometry x="320" y="390" width="180" height="120" as="geometry" />
        </mxCell>
        <mxCell id="1R9x10eIZw1gKWN-5615-40" value="" style="shape=tableRow;horizontal=0;startSize=0;swimlaneHead=0;swimlaneBody=0;strokeColor=inherit;top=0;left=0;bottom=0;right=0;collapsible=0;dropTarget=0;fillColor=none;points=[[0,0.5],[1,0.5]];portConstraint=eastwest;fontSize=16;" vertex="1" parent="1R9x10eIZw1gKWN-5615-39">
          <mxGeometry width="180" height="40" as="geometry" />
        </mxCell>
        <mxCell id="1R9x10eIZw1gKWN-5615-41" value="1" style="shape=partialRectangle;html=1;whiteSpace=wrap;connectable=0;strokeColor=inherit;overflow=hidden;fillColor=none;top=0;left=0;bottom=0;right=0;pointerEvents=1;fontSize=16;" vertex="1" parent="1R9x10eIZw1gKWN-5615-40">
          <mxGeometry width="60" height="40" as="geometry">
            <mxRectangle width="60" height="40" as="alternateBounds" />
          </mxGeometry>
        </mxCell>
        <mxCell id="1R9x10eIZw1gKWN-5615-42" value="151" style="shape=partialRectangle;html=1;whiteSpace=wrap;connectable=0;strokeColor=inherit;overflow=hidden;fillColor=none;top=0;left=0;bottom=0;right=0;pointerEvents=1;fontSize=16;" vertex="1" parent="1R9x10eIZw1gKWN-5615-40">
          <mxGeometry x="60" width="60" height="40" as="geometry">
            <mxRectangle width="60" height="40" as="alternateBounds" />
          </mxGeometry>
        </mxCell>
        <mxCell id="1R9x10eIZw1gKWN-5615-43" value="aux" style="shape=partialRectangle;html=1;whiteSpace=wrap;connectable=0;strokeColor=inherit;overflow=hidden;fillColor=none;top=0;left=0;bottom=0;right=0;pointerEvents=1;fontSize=16;" vertex="1" parent="1R9x10eIZw1gKWN-5615-40">
          <mxGeometry x="120" width="60" height="40" as="geometry">
            <mxRectangle width="60" height="40" as="alternateBounds" />
          </mxGeometry>
        </mxCell>
        <mxCell id="1R9x10eIZw1gKWN-5615-44" value="" style="shape=tableRow;horizontal=0;startSize=0;swimlaneHead=0;swimlaneBody=0;strokeColor=inherit;top=0;left=0;bottom=0;right=0;collapsible=0;dropTarget=0;fillColor=none;points=[[0,0.5],[1,0.5]];portConstraint=eastwest;fontSize=16;" vertex="1" parent="1R9x10eIZw1gKWN-5615-39">
          <mxGeometry y="40" width="180" height="40" as="geometry" />
        </mxCell>
        <mxCell id="1R9x10eIZw1gKWN-5615-45" value="2" style="shape=partialRectangle;html=1;whiteSpace=wrap;connectable=0;strokeColor=inherit;overflow=hidden;fillColor=none;top=0;left=0;bottom=0;right=0;pointerEvents=1;fontSize=16;" vertex="1" parent="1R9x10eIZw1gKWN-5615-44">
          <mxGeometry width="60" height="40" as="geometry">
            <mxRectangle width="60" height="40" as="alternateBounds" />
          </mxGeometry>
        </mxCell>
        <mxCell id="1R9x10eIZw1gKWN-5615-46" value="152" style="shape=partialRectangle;html=1;whiteSpace=wrap;connectable=0;strokeColor=inherit;overflow=hidden;fillColor=none;top=0;left=0;bottom=0;right=0;pointerEvents=1;fontSize=16;" vertex="1" parent="1R9x10eIZw1gKWN-5615-44">
          <mxGeometry x="60" width="60" height="40" as="geometry">
            <mxRectangle width="60" height="40" as="alternateBounds" />
          </mxGeometry>
        </mxCell>
        <mxCell id="1R9x10eIZw1gKWN-5615-47" value="&lt;font color=&quot;#ff0000&quot;&gt;aum&lt;/font&gt;" style="shape=partialRectangle;html=1;whiteSpace=wrap;connectable=0;strokeColor=inherit;overflow=hidden;fillColor=none;top=0;left=0;bottom=0;right=0;pointerEvents=1;fontSize=16;" vertex="1" parent="1R9x10eIZw1gKWN-5615-44">
          <mxGeometry x="120" width="60" height="40" as="geometry">
            <mxRectangle width="60" height="40" as="alternateBounds" />
          </mxGeometry>
        </mxCell>
        <mxCell id="1R9x10eIZw1gKWN-5615-48" value="" style="shape=tableRow;horizontal=0;startSize=0;swimlaneHead=0;swimlaneBody=0;strokeColor=inherit;top=0;left=0;bottom=0;right=0;collapsible=0;dropTarget=0;fillColor=none;points=[[0,0.5],[1,0.5]];portConstraint=eastwest;fontSize=16;" vertex="1" parent="1R9x10eIZw1gKWN-5615-39">
          <mxGeometry y="80" width="180" height="40" as="geometry" />
        </mxCell>
        <mxCell id="1R9x10eIZw1gKWN-5615-49" value="" style="shape=partialRectangle;html=1;whiteSpace=wrap;connectable=0;strokeColor=inherit;overflow=hidden;fillColor=none;top=0;left=0;bottom=0;right=0;pointerEvents=1;fontSize=16;" vertex="1" parent="1R9x10eIZw1gKWN-5615-48">
          <mxGeometry width="60" height="40" as="geometry">
            <mxRectangle width="60" height="40" as="alternateBounds" />
          </mxGeometry>
        </mxCell>
        <mxCell id="1R9x10eIZw1gKWN-5615-50" value="" style="shape=partialRectangle;html=1;whiteSpace=wrap;connectable=0;strokeColor=inherit;overflow=hidden;fillColor=none;top=0;left=0;bottom=0;right=0;pointerEvents=1;fontSize=16;" vertex="1" parent="1R9x10eIZw1gKWN-5615-48">
          <mxGeometry x="60" width="60" height="40" as="geometry">
            <mxRectangle width="60" height="40" as="alternateBounds" />
          </mxGeometry>
        </mxCell>
        <mxCell id="1R9x10eIZw1gKWN-5615-51" value="" style="shape=partialRectangle;html=1;whiteSpace=wrap;connectable=0;strokeColor=inherit;overflow=hidden;fillColor=none;top=0;left=0;bottom=0;right=0;pointerEvents=1;fontSize=16;" vertex="1" parent="1R9x10eIZw1gKWN-5615-48">
          <mxGeometry x="120" width="60" height="40" as="geometry">
            <mxRectangle width="60" height="40" as="alternateBounds" />
          </mxGeometry>
        </mxCell>
        <mxCell id="1R9x10eIZw1gKWN-5615-74" value="152, aum" style="text;html=1;align=center;verticalAlign=middle;resizable=0;points=[];autosize=1;strokeColor=none;fillColor=none;" vertex="1" parent="1">
          <mxGeometry x="145" y="438" width="70" height="30" as="geometry" />
        </mxCell>
        <mxCell id="1R9x10eIZw1gKWN-5615-75" style="edgeStyle=orthogonalEdgeStyle;rounded=0;orthogonalLoop=1;jettySize=auto;html=1;" edge="1" parent="1" source="1R9x10eIZw1gKWN-5615-76">
          <mxGeometry relative="1" as="geometry">
            <mxPoint x="310" y="585" as="targetPoint" />
          </mxGeometry>
        </mxCell>
        <mxCell id="1R9x10eIZw1gKWN-5615-76" value="Actor" style="shape=umlActor;verticalLabelPosition=bottom;verticalAlign=top;html=1;outlineConnect=0;" vertex="1" parent="1">
          <mxGeometry x="90" y="550" width="30" height="60" as="geometry" />
        </mxCell>
        <mxCell id="1R9x10eIZw1gKWN-5615-77" value="第四次" style="text;html=1;strokeColor=none;fillColor=none;align=center;verticalAlign=middle;whiteSpace=wrap;rounded=0;" vertex="1" parent="1">
          <mxGeometry x="170" y="550" width="60" height="30" as="geometry" />
        </mxCell>
        <mxCell id="1R9x10eIZw1gKWN-5615-78" value="" style="shape=table;startSize=0;container=1;collapsible=0;childLayout=tableLayout;fontSize=16;" vertex="1" parent="1">
          <mxGeometry x="310" y="540" width="180" height="120" as="geometry" />
        </mxCell>
        <mxCell id="1R9x10eIZw1gKWN-5615-79" value="" style="shape=tableRow;horizontal=0;startSize=0;swimlaneHead=0;swimlaneBody=0;strokeColor=inherit;top=0;left=0;bottom=0;right=0;collapsible=0;dropTarget=0;fillColor=none;points=[[0,0.5],[1,0.5]];portConstraint=eastwest;fontSize=16;" vertex="1" parent="1R9x10eIZw1gKWN-5615-78">
          <mxGeometry width="180" height="40" as="geometry" />
        </mxCell>
        <mxCell id="1R9x10eIZw1gKWN-5615-80" value="1" style="shape=partialRectangle;html=1;whiteSpace=wrap;connectable=0;strokeColor=inherit;overflow=hidden;fillColor=none;top=0;left=0;bottom=0;right=0;pointerEvents=1;fontSize=16;" vertex="1" parent="1R9x10eIZw1gKWN-5615-79">
          <mxGeometry width="60" height="40" as="geometry">
            <mxRectangle width="60" height="40" as="alternateBounds" />
          </mxGeometry>
        </mxCell>
        <mxCell id="1R9x10eIZw1gKWN-5615-81" value="151" style="shape=partialRectangle;html=1;whiteSpace=wrap;connectable=0;strokeColor=inherit;overflow=hidden;fillColor=none;top=0;left=0;bottom=0;right=0;pointerEvents=1;fontSize=16;" vertex="1" parent="1R9x10eIZw1gKWN-5615-79">
          <mxGeometry x="60" width="60" height="40" as="geometry">
            <mxRectangle width="60" height="40" as="alternateBounds" />
          </mxGeometry>
        </mxCell>
        <mxCell id="1R9x10eIZw1gKWN-5615-82" value="aux" style="shape=partialRectangle;html=1;whiteSpace=wrap;connectable=0;strokeColor=inherit;overflow=hidden;fillColor=none;top=0;left=0;bottom=0;right=0;pointerEvents=1;fontSize=16;" vertex="1" parent="1R9x10eIZw1gKWN-5615-79">
          <mxGeometry x="120" width="60" height="40" as="geometry">
            <mxRectangle width="60" height="40" as="alternateBounds" />
          </mxGeometry>
        </mxCell>
        <mxCell id="1R9x10eIZw1gKWN-5615-83" value="" style="shape=tableRow;horizontal=0;startSize=0;swimlaneHead=0;swimlaneBody=0;strokeColor=inherit;top=0;left=0;bottom=0;right=0;collapsible=0;dropTarget=0;fillColor=none;points=[[0,0.5],[1,0.5]];portConstraint=eastwest;fontSize=16;" vertex="1" parent="1R9x10eIZw1gKWN-5615-78">
          <mxGeometry y="40" width="180" height="40" as="geometry" />
        </mxCell>
        <mxCell id="1R9x10eIZw1gKWN-5615-84" value="2" style="shape=partialRectangle;html=1;whiteSpace=wrap;connectable=0;strokeColor=inherit;overflow=hidden;fillColor=none;top=0;left=0;bottom=0;right=0;pointerEvents=1;fontSize=16;" vertex="1" parent="1R9x10eIZw1gKWN-5615-83">
          <mxGeometry width="60" height="40" as="geometry">
            <mxRectangle width="60" height="40" as="alternateBounds" />
          </mxGeometry>
        </mxCell>
        <mxCell id="1R9x10eIZw1gKWN-5615-85" value="152" style="shape=partialRectangle;html=1;whiteSpace=wrap;connectable=0;strokeColor=inherit;overflow=hidden;fillColor=none;top=0;left=0;bottom=0;right=0;pointerEvents=1;fontSize=16;" vertex="1" parent="1R9x10eIZw1gKWN-5615-83">
          <mxGeometry x="60" width="60" height="40" as="geometry">
            <mxRectangle width="60" height="40" as="alternateBounds" />
          </mxGeometry>
        </mxCell>
        <mxCell id="1R9x10eIZw1gKWN-5615-86" value="&lt;font color=&quot;#ff0000&quot;&gt;aum&lt;/font&gt;" style="shape=partialRectangle;html=1;whiteSpace=wrap;connectable=0;strokeColor=inherit;overflow=hidden;fillColor=none;top=0;left=0;bottom=0;right=0;pointerEvents=1;fontSize=16;" vertex="1" parent="1R9x10eIZw1gKWN-5615-83">
          <mxGeometry x="120" width="60" height="40" as="geometry">
            <mxRectangle width="60" height="40" as="alternateBounds" />
          </mxGeometry>
        </mxCell>
        <mxCell id="1R9x10eIZw1gKWN-5615-87" value="" style="shape=tableRow;horizontal=0;startSize=0;swimlaneHead=0;swimlaneBody=0;strokeColor=inherit;top=0;left=0;bottom=0;right=0;collapsible=0;dropTarget=0;fillColor=none;points=[[0,0.5],[1,0.5]];portConstraint=eastwest;fontSize=16;" vertex="1" parent="1R9x10eIZw1gKWN-5615-78">
          <mxGeometry y="80" width="180" height="40" as="geometry" />
        </mxCell>
        <mxCell id="1R9x10eIZw1gKWN-5615-88" value="" style="shape=partialRectangle;html=1;whiteSpace=wrap;connectable=0;strokeColor=inherit;overflow=hidden;fillColor=none;top=0;left=0;bottom=0;right=0;pointerEvents=1;fontSize=16;" vertex="1" parent="1R9x10eIZw1gKWN-5615-87">
          <mxGeometry width="60" height="40" as="geometry">
            <mxRectangle width="60" height="40" as="alternateBounds" />
          </mxGeometry>
        </mxCell>
        <mxCell id="1R9x10eIZw1gKWN-5615-89" value="" style="shape=partialRectangle;html=1;whiteSpace=wrap;connectable=0;strokeColor=inherit;overflow=hidden;fillColor=none;top=0;left=0;bottom=0;right=0;pointerEvents=1;fontSize=16;" vertex="1" parent="1R9x10eIZw1gKWN-5615-87">
          <mxGeometry x="60" width="60" height="40" as="geometry">
            <mxRectangle width="60" height="40" as="alternateBounds" />
          </mxGeometry>
        </mxCell>
        <mxCell id="1R9x10eIZw1gKWN-5615-90" value="" style="shape=partialRectangle;html=1;whiteSpace=wrap;connectable=0;strokeColor=inherit;overflow=hidden;fillColor=none;top=0;left=0;bottom=0;right=0;pointerEvents=1;fontSize=16;" vertex="1" parent="1R9x10eIZw1gKWN-5615-87">
          <mxGeometry x="120" width="60" height="40" as="geometry">
            <mxRectangle width="60" height="40" as="alternateBounds" />
          </mxGeometry>
        </mxCell>
        <mxCell id="1R9x10eIZw1gKWN-5615-91" value="&lt;font color=&quot;#ff0080&quot;&gt;152, aux&lt;/font&gt;" style="text;html=1;align=center;verticalAlign=middle;resizable=0;points=[];autosize=1;strokeColor=none;fillColor=none;" vertex="1" parent="1">
          <mxGeometry x="135" y="588" width="70" height="30" as="geometry" />
        </mxCell>
        <mxCell id="1R9x10eIZw1gKWN-5615-92" value="原因是第四次不登陆了，直接根据152进行查询" style="text;html=1;strokeColor=none;fillColor=none;align=center;verticalAlign=middle;whiteSpace=wrap;rounded=0;" vertex="1" parent="1">
          <mxGeometry x="580" y="530" width="170" height="70" as="geometry" />
        </mxCell>
        <mxCell id="1R9x10eIZw1gKWN-5615-93" value="151,aux" style="text;html=1;strokeColor=none;fillColor=none;align=center;verticalAlign=middle;whiteSpace=wrap;rounded=0;" vertex="1" parent="1">
          <mxGeometry x="180" y="160" width="60" height="30" as="geometry" />
        </mxCell>
        <mxCell id="1R9x10eIZw1gKWN-5615-94" value="152,aux" style="text;html=1;strokeColor=none;fillColor=none;align=center;verticalAlign=middle;whiteSpace=wrap;rounded=0;" vertex="1" parent="1">
          <mxGeometry x="190" y="300" width="60" height="30" as="geometry" />
        </mxCell>
      </root>
    </mxGraphModel>
  </diagram>
</mxfile>
